# xmcd
#
# Track frame offsets:
#	150
#	18280
#	32349
#	48943
#	63318
#	84590
#	100376
#	121757
#	139778
#	153897
#	167995
#
# Disc length: 2481 seconds
#
# Revision: 4522029
# Processed by: cddbd v1.5.2PL0 Copyright (c) Steve Scherf et al.
# Submitted via: EZCDAudioConverter 8.1.0.1
#
DISCID=8009af0b
DTITLE=Carrie Rodriguez - Give Me All You Got
DYEAR=2013
DGENRE=Country
TTITLE0=Devil In Mind
TTITLE1=Sad Joy
TTITLE2=I Cry For Love
TTITLE3=Lake Harriet
TTITLE4=Get Back In Love
TTITLE5=Tragic
TTITLE6=Cut Me Now
TTITLE7=Whiskey Runs Thicker Than Blood
TTITLE8=Devil In Mind (Instrumental)
TTITLE9=Brooklyn
TTITLE10=I Don't Mind Waiting
EXTD=
EXTT0=
EXTT1=
EXTT2=
EXTT3=
EXTT4=
EXTT5=
EXTT6=
EXTT7=
EXTT8=
EXTT9=
EXTT10=
PLAYORDER=
